<svg width="32" height="30" viewBox="0 0 32 30" fill="none" xmlns="http://www.w3.org/2000/svg">
<path d="M29.343 0.197571H2.65694C1.49331 0.197571 0.547852 1.14303 0.547852 2.30666V19.8727V22.103C0.547852 23.2667 1.49331 24.2121 2.65694 24.2121H11.3697L9.96361 27.0048H7.95149C7.71876 27.0048 7.52482 27.1939 7.52482 27.4315V29.3709C7.52482 29.6036 7.71391 29.7976 7.95149 29.7976H24.0485C24.2812 29.7976 24.4751 29.6085 24.4751 29.3709V27.4315C24.4751 27.1988 24.286 27.0048 24.0485 27.0048H22.0363L20.6303 24.2121H29.343C30.5066 24.2121 31.4521 23.2667 31.4521 22.103V19.8727V2.31151C31.4569 1.14787 30.5066 0.197571 29.343 0.197571ZM1.39634 2.31151C1.39634 1.61333 1.96361 1.0509 2.65694 1.0509H29.343C30.0412 1.0509 30.6036 1.61818 30.6036 2.31151V19.4509H1.39634V2.31151ZM23.6218 28.9539H8.37816V27.863H23.6218V28.9539ZM21.086 27.0097H10.9139L12.32 24.217H19.6848L21.086 27.0097ZM30.6085 22.103C30.6085 22.8012 30.0412 23.3636 29.3479 23.3636H2.65694C1.95876 23.3636 1.39634 22.7964 1.39634 22.103V20.2994H30.6085V22.103Z" fill="white"/>
<path d="M15.9995 22.3212C16.2673 22.3212 16.4843 22.1041 16.4843 21.8363C16.4843 21.5686 16.2673 21.3515 15.9995 21.3515C15.7317 21.3515 15.5146 21.5686 15.5146 21.8363C15.5146 22.1041 15.7317 22.3212 15.9995 22.3212Z" fill="white"/>
<path d="M24.6836 5.87515H22.3515C22.1187 5.87515 21.9248 6.06424 21.9248 6.30182V17.4582C21.9248 17.6909 22.1139 17.8849 22.3515 17.8849H24.6836C24.9163 17.8849 25.1103 17.6958 25.1103 17.4582V6.29697C25.1103 6.06424 24.9212 5.87515 24.6836 5.87515ZM24.2618 17.0267H22.7781V6.72364H24.2618V17.0267Z" fill="white"/>
<path d="M16.8877 10.7285H14.5556C14.3228 10.7285 14.1289 10.9176 14.1289 11.1552V17.4582C14.1289 17.6909 14.318 17.8848 14.5556 17.8848H16.8877C17.1204 17.8848 17.3144 17.6958 17.3144 17.4582V11.1552C17.3095 10.9176 17.1204 10.7285 16.8877 10.7285ZM16.461 17.0267H14.9822V11.577H16.4659V17.0267H16.461Z" fill="white"/>
<path d="M28.5869 10.7285H26.2548C26.0221 10.7285 25.8281 10.9176 25.8281 11.1552V17.4582C25.8281 17.6909 26.0172 17.8848 26.2548 17.8848H28.5869C28.8196 17.8848 29.0136 17.6958 29.0136 17.4582V11.1552C29.0087 10.9176 28.8196 10.7285 28.5869 10.7285ZM28.1602 17.0267H26.6766V11.577H28.1602V17.0267Z" fill="white"/>
<path d="M20.7852 13.6376H18.453C18.2203 13.6376 18.0264 13.8267 18.0264 14.0642V17.4533C18.0264 17.6861 18.2155 17.88 18.453 17.88H20.7852C21.0179 17.88 21.2118 17.6909 21.2118 17.4533V14.0642C21.2118 13.8267 21.0179 13.6376 20.7852 13.6376ZM20.3633 17.0267H18.8797V14.4861H20.3633V17.0267Z" fill="white"/>
<path d="M11.6795 15.3345H3.39346C3.16074 15.3345 2.9668 15.5236 2.9668 15.7612C2.9668 15.9988 3.16074 16.183 3.39346 16.183H11.6795C11.9123 16.183 12.1062 15.9939 12.1062 15.7564C12.1062 15.5188 11.9123 15.3345 11.6795 15.3345Z" fill="white"/>
<path d="M8.43589 17.0267H3.39346C3.16074 17.0267 2.9668 17.2158 2.9668 17.4533C2.9668 17.6909 3.16074 17.8752 3.39346 17.8752H8.43589C8.66861 17.8752 8.86256 17.6861 8.86256 17.4485C8.86256 17.2109 8.67346 17.0267 8.43589 17.0267Z" fill="white"/>
<path d="M8.44558 2.6315C8.44074 2.6315 8.43589 2.63634 8.43104 2.63634C8.42619 2.63634 8.42134 2.6315 8.41165 2.6315C8.38256 2.6315 8.35346 2.62665 8.32437 2.62665C5.37165 2.62665 2.9668 5.0315 2.9668 7.98422C2.9668 9.44362 3.54377 10.8109 4.59589 11.8291C5.60437 12.8036 6.92316 13.3418 8.32437 13.3418C11.2771 13.3418 13.6819 10.937 13.6819 7.98422C13.6868 5.09453 11.3353 2.69453 8.44558 2.6315ZM8.01407 3.48483V7.80483L4.90619 10.9127C4.20316 10.0982 3.82013 9.07028 3.82013 7.97938C3.82013 5.60847 5.65771 3.65938 8.01407 3.48483ZM8.32922 12.4933C7.29649 12.4933 6.3171 12.1442 5.5171 11.5042L8.61528 8.40604H12.8189C12.6056 10.6945 10.671 12.4933 8.32922 12.4933ZM8.86256 7.55756V3.50907C10.9523 3.76119 12.6153 5.46786 12.8189 7.55756H8.86256Z" fill="white"/>
</svg>
