<svg width="24" height="32" viewBox="0 0 24 32" fill="none" xmlns="http://www.w3.org/2000/svg">
<path d="M20.8724 4.46547H17.5221V3.96122C17.5221 3.2388 16.9354 2.65213 16.2178 2.65213H14.6178L13.8421 1.39153C13.5608 0.940617 13.0808 0.67395 12.5524 0.67395H11.4518C10.9233 0.67395 10.4433 0.940617 10.1621 1.39153L9.3863 2.64728H7.7863C7.06388 2.64728 6.48206 3.23395 6.48206 3.95637V4.45577H3.12691C1.83236 4.45577 0.775391 5.50789 0.775391 6.80728V28.9649C0.775391 30.2594 1.82751 31.3164 3.12691 31.3164H20.8724C22.1669 31.3164 23.2239 30.2643 23.2239 28.9649V6.80728C23.2239 5.51759 22.1718 4.46547 20.8724 4.46547ZM7.41297 3.96122C7.41297 3.75759 7.57782 3.59274 7.7766 3.59274H9.63842C9.80327 3.59274 9.95357 3.51031 10.036 3.36971L10.9524 1.89092C11.059 1.72122 11.2433 1.6194 11.4421 1.6194H12.5427C12.7415 1.6194 12.9305 1.72607 13.0324 1.89092L13.9487 3.36971C14.036 3.51031 14.1863 3.59274 14.3463 3.59274H16.2033C16.4069 3.59274 16.5669 3.75759 16.5669 3.96122V5.41092C16.5669 5.61456 16.4021 5.77456 16.2033 5.77456H7.78145C7.57781 5.77456 7.41781 5.60971 7.41781 5.41092V3.96122H7.41297ZM22.2833 28.9746C22.2833 29.7503 21.653 30.3855 20.8724 30.3855H3.12691C2.35115 30.3855 1.716 29.7552 1.716 28.9746V6.81698C1.716 6.04122 2.3463 5.40607 3.12691 5.40607H6.47721V5.41577C6.47721 6.13819 7.06388 6.72001 7.78145 6.72001H16.2178C16.9402 6.72001 17.5221 6.13334 17.5221 5.41577V5.40607H20.8724C21.6481 5.40607 22.2833 6.03637 22.2833 6.81698V28.9746Z" fill="white"/>
<path d="M11.6214 3.07394H12.3778C12.6396 3.07394 12.8481 2.86545 12.8481 2.60363C12.8481 2.34182 12.6348 2.13333 12.3778 2.13333H11.6214C11.3596 2.13333 11.1511 2.34182 11.1511 2.60363C11.1511 2.86545 11.3596 3.07394 11.6214 3.07394Z" fill="white"/>
<path d="M7.42263 9.15881H4.65415C3.97051 9.15881 3.41779 9.71154 3.41779 10.3952V13.1637C3.41779 13.8473 3.97051 14.4 4.65415 14.4H7.42263C8.10627 14.4 8.659 13.8473 8.659 13.1637V10.3952C8.659 9.71154 8.10627 9.15881 7.42263 9.15881ZM7.71839 13.1685C7.71839 13.3334 7.58263 13.4643 7.42263 13.4643H4.65415C4.4893 13.4643 4.35839 13.3285 4.35839 13.1685V10.4C4.35839 10.2352 4.49415 10.1043 4.65415 10.1043H7.42263C7.58748 10.1043 7.71839 10.24 7.71839 10.4V13.1685Z" fill="white"/>
<path d="M20.1891 10.2255H10.9576C10.6958 10.2255 10.4873 10.4339 10.4873 10.6958C10.4873 10.9576 10.6958 11.1661 10.9576 11.1661H20.1843C20.4461 11.1661 20.6546 10.9576 20.6546 10.6958C20.6594 10.4339 20.4461 10.2255 20.1891 10.2255Z" fill="white"/>
<path d="M10.9576 13.3382H16.3152C16.577 13.3382 16.7855 13.1297 16.7855 12.8679C16.7855 12.6061 16.577 12.3976 16.3152 12.3976H10.9576C10.6958 12.3976 10.4873 12.6061 10.4873 12.8679C10.4873 13.1249 10.7006 13.3382 10.9576 13.3382Z" fill="white"/>
<path d="M7.42263 15.7624H4.65415C3.97051 15.7624 3.41779 16.32 3.41779 16.9988V19.7673C3.41779 20.4509 3.97051 21.0036 4.65415 21.0036H7.42263C8.10627 21.0036 8.659 20.4509 8.659 19.7673V16.9988C8.659 16.32 8.10627 15.7624 7.42263 15.7624ZM7.71839 19.7721C7.71839 19.937 7.58263 20.0679 7.42263 20.0679H4.65415C4.4893 20.0679 4.35839 19.9321 4.35839 19.7721V17.0036C4.35839 16.8388 4.49415 16.7079 4.65415 16.7079H7.42263C7.58748 16.7079 7.71839 16.8436 7.71839 17.0036V19.7721Z" fill="white"/>
<path d="M20.1891 16.834H10.9576C10.6958 16.834 10.4873 17.0424 10.4873 17.3043C10.4873 17.5661 10.6958 17.7746 10.9576 17.7746H20.1843C20.4461 17.7746 20.6546 17.5661 20.6546 17.3043C20.6546 17.0424 20.4461 16.834 20.1891 16.834Z" fill="white"/>
<path d="M10.9576 19.9418H16.3152C16.577 19.9418 16.7855 19.7333 16.7855 19.4715C16.7855 19.2097 16.577 19.0012 16.3152 19.0012H10.9576C10.6958 19.0012 10.4873 19.2097 10.4873 19.4715C10.4873 19.7333 10.7006 19.9418 10.9576 19.9418Z" fill="white"/>
<path d="M7.42263 22.3709H4.65415C3.97051 22.3709 3.41779 22.9236 3.41779 23.6073V26.3758C3.41779 27.0594 3.97051 27.6121 4.65415 27.6121H7.42263C8.10627 27.6121 8.659 27.0545 8.659 26.3758V23.6073C8.659 22.9285 8.10627 22.3709 7.42263 22.3709ZM7.71839 26.3806C7.71839 26.5455 7.58263 26.6764 7.42263 26.6764H4.65415C4.4893 26.6764 4.35839 26.5406 4.35839 26.3806V23.6121C4.35839 23.4473 4.49415 23.3164 4.65415 23.3164H7.42263C7.58748 23.3164 7.71839 23.4521 7.71839 23.6121V26.3806Z" fill="white"/>
<path d="M20.1891 23.4376H10.9576C10.6958 23.4376 10.4873 23.6461 10.4873 23.9079C10.4873 24.1697 10.6958 24.3782 10.9576 24.3782H20.1843C20.4461 24.3782 20.6546 24.1697 20.6546 23.9079C20.6594 23.6461 20.4461 23.4376 20.1891 23.4376Z" fill="white"/>
<path d="M16.32 25.6097H10.9576C10.6958 25.6097 10.4873 25.8182 10.4873 26.08C10.4873 26.3418 10.6958 26.5503 10.9576 26.5503H16.3152C16.577 26.5503 16.7855 26.3418 16.7855 26.08C16.7903 25.8182 16.577 25.6097 16.32 25.6097Z" fill="white"/>
<path d="M6.46241 11.1806L5.91453 11.6412L5.79817 11.5006C5.63332 11.3018 5.33756 11.2727 5.13393 11.4376C4.93514 11.6024 4.90605 11.8982 5.0709 12.1018L5.49272 12.6061C5.57514 12.703 5.68666 12.7612 5.81272 12.7758H5.85635C5.96787 12.7758 6.07453 12.737 6.16181 12.6643L7.06847 11.8982C7.26726 11.7285 7.2915 11.4327 7.12181 11.2339C6.95696 11.04 6.6612 11.0158 6.46241 11.1806Z" fill="white"/>
</svg>
