<svg width="28" height="32" viewBox="0 0 28 32" fill="none" xmlns="http://www.w3.org/2000/svg">
<path d="M19.1107 10.9075V13.4038C19.1107 14.6194 18.1257 15.6044 16.9107 15.6044H16.6482C15.4332 15.6044 14.4482 14.6194 14.4482 13.4038V10.9075C14.4482 9.69252 15.4332 8.70752 16.6482 8.70752H16.9107C18.1257 8.70752 19.1107 9.69252 19.1107 10.9075Z" stroke="white" stroke-miterlimit="10" stroke-linecap="round" stroke-linejoin="round"/>
<path d="M12.6034 13.713C12.6034 19.2813 20.9558 19.2813 20.9558 13.713" stroke="white" stroke-miterlimit="10" stroke-linecap="round" stroke-linejoin="round"/>
<path d="M16.7793 17.8891V19.8705" stroke="white" stroke-miterlimit="10" stroke-linecap="round" stroke-linejoin="round"/>
<path d="M15.0361 19.8705H18.5226" stroke="white" stroke-miterlimit="10" stroke-linecap="round" stroke-linejoin="round"/>
<path d="M12.0869 23.4209V24.1746" stroke="white" stroke-miterlimit="10" stroke-linecap="round" stroke-linejoin="round"/>
<path d="M18.2676 24.8C18.2676 25.7194 17.602 26.465 16.7801 26.465C15.9582 26.465 15.292 25.7194 15.292 24.8C15.292 23.8806 15.9582 23.7938 16.7801 23.7938C17.602 23.7938 18.2676 23.8806 18.2676 24.8Z" stroke="white" stroke-miterlimit="10" stroke-linecap="round" stroke-linejoin="round"/>
<path d="M21.4729 23.4209V24.1746" stroke="white" stroke-miterlimit="10" stroke-linecap="round" stroke-linejoin="round"/>
<path d="M6.67027 6.72186H3.82715" stroke="white" stroke-miterlimit="10" stroke-linecap="round" stroke-linejoin="round"/>
<path d="M6.2109 10.1125H3.82715" stroke="white" stroke-miterlimit="10" stroke-linecap="round" stroke-linejoin="round"/>
<path d="M6.2109 13.5031H3.82715" stroke="white" stroke-miterlimit="10" stroke-linecap="round" stroke-linejoin="round"/>
<path d="M6.2109 16.8944H3.82715" stroke="white" stroke-miterlimit="10" stroke-linecap="round" stroke-linejoin="round"/>
<path d="M6.2109 20.285H3.82715" stroke="white" stroke-miterlimit="10" stroke-linecap="round" stroke-linejoin="round"/>
<path d="M18.2676 24.8C18.2676 25.7194 17.602 26.465 16.7801 26.465C15.9582 26.465 15.292 25.7194 15.292 24.8C15.292 23.8806 15.9582 23.7938 16.7801 23.7938C17.602 23.7938 18.2676 23.8806 18.2676 24.8Z" stroke="white" stroke-miterlimit="10" stroke-linecap="round" stroke-linejoin="round"/>
<path d="M19.1107 10.9075V13.4038C19.1107 14.6194 18.1257 15.6044 16.9107 15.6044H16.6482C15.4332 15.6044 14.4482 14.6194 14.4482 13.4038V10.9075C14.4482 9.69252 15.4332 8.70752 16.6482 8.70752H16.9107C18.1257 8.70752 19.1107 9.69252 19.1107 10.9075Z" stroke="white" stroke-miterlimit="10" stroke-linecap="round" stroke-linejoin="round"/>
<path d="M0.652344 6.61981V3.265C0.652344 1.72063 1.90422 0.46875 3.44859 0.46875H18.9942C20.5386 0.46875 21.7905 1.72063 21.7905 3.265V5.46187H9.00672C8.02984 5.46187 7.16984 5.96313 6.66984 6.72188C6.37922 7.16313 6.21047 7.69125 6.21047 8.25813V26.5381H3.44859C1.90422 26.5381 0.652344 25.2862 0.652344 23.7419V8.80731" stroke="white" stroke-miterlimit="10" stroke-linecap="round" stroke-linejoin="round"/>
<path d="M16.7801 23.7938C17.602 23.7938 18.2676 23.8806 18.2676 24.8C18.2676 25.7194 17.602 26.465 16.7801 26.465C15.9582 26.465 15.292 25.7194 15.292 24.8C15.292 23.8806 15.9582 23.7938 16.7801 23.7938Z" stroke="white" stroke-miterlimit="10" stroke-linecap="round" stroke-linejoin="round"/>
<path d="M14.4482 13.4038V10.9075C14.4482 9.69252 15.4332 8.70752 16.6482 8.70752H16.9107C18.1257 8.70752 19.1107 9.69252 19.1107 10.9075V13.4038C19.1107 14.6194 18.1257 15.6044 16.9107 15.6044H16.6482C15.4332 15.6044 14.4482 14.6194 14.4482 13.4038Z" stroke="white" stroke-miterlimit="10" stroke-linecap="round" stroke-linejoin="round"/>
<path d="M27.3491 25.2683V28.735C27.3491 30.2794 26.0972 31.5312 24.5528 31.5312H9.00719C7.46281 31.5312 6.21094 30.2794 6.21094 28.735V26.5381" stroke="white" stroke-miterlimit="10" stroke-linecap="round" stroke-linejoin="round"/>
<path d="M21.79 5.46185H24.5519C26.0963 5.46185 27.3482 6.71373 27.3482 8.2581V23.0808" stroke="white" stroke-miterlimit="10" stroke-linecap="round" stroke-linejoin="round"/>
</svg>
