<svg width="32" height="32" viewBox="0 0 32 32" fill="none" xmlns="http://www.w3.org/2000/svg">
<g clip-path="url(#clip0_160_1030)">
<path d="M16.0216 20.615C13.4482 20.615 11.3545 18.5631 11.3545 16.0405C11.3545 13.5179 13.4482 11.4658 16.0216 11.4658C16.3865 11.4658 16.8311 11.5556 16.8017 12.0227C16.7736 12.4687 16.3695 12.4981 16.0216 12.4981C14.0172 12.4981 12.3868 14.0872 12.3868 16.0405C12.3868 17.9938 14.0172 19.5827 16.0216 19.5827C18.026 19.5827 19.6564 17.9936 19.6564 16.0405C19.6564 15.4697 19.5217 14.9252 19.2559 14.4217C19.1227 14.1698 19.2193 13.8576 19.4711 13.7244C19.723 13.5912 20.0358 13.6872 20.1687 13.9399C20.5088 14.584 20.6887 15.3105 20.6887 16.0405C20.6887 18.5631 18.5953 20.615 16.0216 20.615Z" fill="white"/>
<path d="M18.4829 13.2888C18.3784 13.2888 18.2728 13.257 18.1815 13.1912C18.045 13.0929 17.8999 13.0028 17.7505 12.9236C17.4984 12.7902 17.4024 12.4782 17.5355 12.2261C17.6687 11.9744 17.981 11.8777 18.2331 12.0113C18.4246 12.1128 18.6104 12.2279 18.7854 12.3541C19.1817 12.6397 18.9722 13.2888 18.4829 13.2888Z" fill="white"/>
<path d="M30.0578 7.89806L30.0395 5.65728C30.0372 5.37367 29.8065 5.14554 29.5234 5.14554C29.5218 5.14554 29.5205 5.14554 29.519 5.14554C29.2341 5.14786 29.0047 5.3809 29.007 5.6658L29.0124 6.3458C25.9138 2.65599 20.9505 0.258057 16.1897 0.258057C11.2669 0.258057 6.70997 2.46296 3.68932 6.30683C3.51332 6.53083 3.55229 6.85522 3.77629 7.03122C4.00055 7.20748 4.32493 7.16851 4.50119 6.94425C7.32493 3.35096 11.5853 1.29031 16.1897 1.29031C20.8178 1.29031 25.6511 3.70735 28.5285 7.38657H27.112C26.8271 7.38657 26.5959 7.61754 26.5959 7.9027C26.5959 8.1876 26.8271 8.41883 27.112 8.41883H29.5417C29.7082 8.41857 30.0578 8.23302 30.0578 7.89806Z" fill="white"/>
<path d="M30.9512 10.2622C30.848 9.9969 30.5486 9.86529 30.2831 9.96877C30.0175 10.072 29.8859 10.3714 29.9894 10.6372C30.6384 12.3024 30.9675 14.0601 30.9675 15.8614C30.9675 21.521 27.025 26.9556 21.4075 29.2955L21.792 28.7071C21.9479 28.4686 21.8808 28.1486 21.6423 27.993C21.4036 27.8374 21.0839 27.904 20.9277 28.1427L19.6968 30.0261C19.5254 30.2875 19.6356 30.6547 19.9205 30.7806L21.9943 31.6952C22.6031 31.9623 23.0199 31.0196 22.4108 30.7507L21.5285 30.3618C24.2369 29.2864 26.6921 27.4981 28.5399 25.2325C30.8036 22.4568 31.9997 19.2165 31.9997 15.8614C31.9997 13.9314 31.647 12.0477 30.9512 10.2622C31.647 12.0477 30.8477 9.99664 30.9512 10.2622Z" fill="white"/>
<path d="M16.802 30.4201C16.5989 30.4281 16.3948 30.4323 16.1896 30.4323C8.041 30.4323 1.41159 23.896 1.41159 15.8614C1.41159 14.44 2.009 12.6622 2.57829 11.1615L3.03352 12.1688C3.30836 12.7763 4.24797 12.3492 3.97442 11.744L3.0121 9.61496C2.89365 9.35329 2.56771 9.23742 2.31068 9.36593L0.285134 10.3804C0.0301659 10.5079 -0.0728019 10.8181 0.054682 11.0728C0.182424 11.3277 0.493134 11.4312 0.747327 11.303L1.57855 10.8867C0.98965 12.448 0.379585 14.2988 0.379585 15.8612C0.379585 24.4645 7.47197 31.464 16.1899 31.464C16.4087 31.464 16.6266 31.4594 16.8431 31.4508C17.128 31.4397 17.3496 31.1995 17.3383 30.9148C17.3269 30.6302 17.0862 30.4093 16.802 30.4201C17.0862 30.4093 16.5992 30.4281 16.802 30.4201Z" fill="white"/>
<path d="M16.8261 26.32C16.3195 26.32 14.8179 26.3259 14.5841 26.2263C14.1815 26.055 13.8532 25.6181 13.8532 25.1701V24.1419C13.0754 23.9381 12.3242 23.6207 11.6439 23.2085L10.9213 23.9296C10.4677 24.3776 9.69425 24.3025 9.25889 23.8859C9.04625 23.6823 8.21838 22.8369 8.0269 22.6145C7.61864 22.1399 7.62767 21.4044 8.07386 20.959L8.80109 20.2336C8.3758 19.5089 8.0656 18.7474 7.88909 17.9941H6.87128C6.2367 17.9941 5.71231 17.4728 5.67748 16.8439C5.66122 16.5499 5.66896 15.3641 5.67748 15.0689C5.69502 14.4607 6.18715 13.8764 6.82896 13.8764H7.8607C8.06483 13.1009 8.38251 12.3518 8.79541 11.6738L8.07412 10.9541C7.62277 10.5027 7.70096 9.72595 8.11773 9.2924C8.32186 9.08027 9.16935 8.25395 9.39206 8.06324C9.8669 7.65678 10.6024 7.66582 11.0483 8.1102L11.7766 8.83691C12.503 8.41214 13.2669 8.10246 14.0225 7.92595V6.86969C14.0225 6.23485 14.5459 5.71227 15.174 5.67717C15.4684 5.66091 16.6571 5.66788 16.9531 5.67717C17.5964 5.6973 18.1046 6.22298 18.1046 6.86969V7.89782C18.8824 8.10169 19.6336 8.41885 20.3139 8.83124L21.0364 8.1102C21.4891 7.66066 22.2646 7.73833 22.6989 8.15408C22.9115 8.35769 23.7394 9.20285 23.9306 9.4253C24.3389 9.90014 24.3299 10.6354 23.8834 11.0808L23.1564 11.8062C23.5817 12.5306 23.8917 13.2919 24.0684 14.0454H25.0863C25.7061 14.0454 26.255 14.504 26.3185 15.1316C26.3492 15.4354 26.3314 16.6671 26.3226 16.9708C26.3051 17.5794 25.8135 18.1631 25.1712 18.1631H24.1394C23.9353 18.9386 23.6176 19.6875 23.2047 20.3659L23.926 21.0854C24.3776 21.537 24.2992 22.3138 23.8824 22.7474C23.6782 22.9595 22.831 23.7856 22.6081 23.9763C22.133 24.383 21.398 24.3745 20.9518 23.9296L20.2235 23.2028C19.4971 23.6274 18.7335 23.9373 17.9776 24.1138V25.1278C17.9776 25.7363 17.4548 26.32 16.8261 26.32ZM14.8852 25.129C14.8963 25.1814 14.9332 25.2878 15.0468 25.2878H16.7853C16.8382 25.2767 16.9453 25.24 16.9453 25.1275V23.6906C16.9453 23.4385 17.1278 23.223 17.3768 23.1817C18.2566 23.0354 19.1701 22.6668 20.0189 22.1164C20.223 21.984 20.4922 22.0124 20.6643 22.184L21.6808 23.1985C21.7626 23.2803 21.8723 23.232 21.9239 23.2016L23.1606 22.0088C23.2344 21.9352 23.1897 21.8307 23.1593 21.7786L22.1802 20.8016C22.0039 20.6258 21.9784 20.3494 22.119 20.1443C22.6411 19.3827 23.0341 18.4583 23.2256 17.5409C23.2757 17.3017 23.4865 17.1303 23.7309 17.1303H25.1306C25.1833 17.1195 25.2904 17.0831 25.2904 16.9706V15.2348C25.2692 15.1303 25.2006 15.0774 25.0863 15.0774H23.646C23.3936 15.0774 23.1784 14.8952 23.1368 14.6462C22.9905 13.769 22.6212 12.8581 22.0697 12.0114C21.9363 11.8067 21.9647 11.5368 22.1376 11.3641L23.1541 10.3497C23.2344 10.2697 23.1872 10.1616 23.1572 10.1102L21.9619 8.8764C21.887 8.80207 21.7807 8.84698 21.7278 8.87743L20.7484 9.85472C20.573 10.0299 20.2976 10.0555 20.093 9.91537C19.3299 9.39485 18.4029 9.00233 17.4829 8.81111C17.2434 8.76156 17.0718 8.5502 17.0718 8.30582V6.86891C17.0718 6.76956 17.0024 6.70866 16.9526 6.70866H15.214C15.1611 6.71975 15.054 6.7564 15.054 6.86891V8.34814C15.054 8.60027 14.8715 8.81575 14.6225 8.85704C13.743 9.00337 12.8295 9.37162 11.9804 9.92208C11.7763 10.055 11.5074 10.0263 11.3353 9.85446L10.3188 8.84027C10.2372 8.75872 10.1273 8.80672 10.0757 8.83691L8.83902 10.0297C8.76522 10.1032 8.80986 10.2078 8.84031 10.2599L9.81941 11.2372C9.99567 11.4132 10.0212 11.6893 9.88057 11.8945C9.35877 12.6555 8.96573 13.5801 8.77399 14.4976C8.72393 14.7368 8.51309 14.9081 8.2687 14.9081H6.86973C6.81683 14.9195 6.70973 14.9559 6.70973 15.0687V16.8028C6.72083 16.8552 6.75773 16.9616 6.87128 16.9616H8.31154C8.56393 16.9616 8.77915 17.144 8.8207 17.3928C8.96702 18.2697 9.33606 19.1809 9.8878 20.0279C10.0212 20.2325 9.99283 20.5025 9.81993 20.6751L8.80341 21.6893C8.72315 21.7696 8.77038 21.8777 8.80032 21.929L9.99567 23.1628C10.0705 23.2374 10.1768 23.1925 10.2297 23.1616L11.2091 22.1843C11.3843 22.009 11.6599 21.9835 11.8648 22.1236C12.6277 22.6444 13.5544 23.0369 14.4746 23.2281C14.7141 23.2777 14.8857 23.489 14.8857 23.7334V25.129H14.8852Z" fill="white"/>
</g>
<defs>
<clipPath id="clip0_160_1030">
<rect width="32" height="32" fill="white"/>
</clipPath>
</defs>
</svg>
