<svg width="80" height="87" viewBox="0 0 80 87" fill="none" xmlns="http://www.w3.org/2000/svg">
<path d="M0 55.479V30.6886C0 24.2216 3.47305 18.3533 8.98204 15.1198L31.018 2.42515C36.5269 -0.808383 43.4731 -0.808383 48.982 2.42515L71.018 15.1198C76.5269 18.3533 80 24.2216 80 30.6886V55.479C80 62.3054 76.4072 68.6527 70.4192 72.1258L49.5808 84.1018C43.5928 87.5749 36.4072 87.5749 30.4192 84.1018L9.58084 72.1258C3.71258 68.6527 0 62.3054 0 55.479Z" fill="url(#paint0_radial_160_970)"/>
<path d="M75.4491 52.8443V33.3233C75.4491 26.8563 71.9761 20.988 66.4671 17.7545L48.9821 7.69459C43.4731 4.46106 36.527 4.46106 31.018 7.69459L13.5329 17.7545C8.02396 20.988 4.5509 26.8563 4.5509 33.3233V52.8443C4.5509 59.6707 8.14372 66.018 14.1317 69.491L30.4192 78.8323C36.4072 82.3054 43.5928 82.3054 49.5809 78.8323L65.8683 69.491C71.8563 66.018 75.4491 59.6707 75.4491 52.8443Z" fill="url(#paint1_linear_160_970)"/>
<path d="M75.4491 52.8443V33.3233C75.4491 26.8563 71.9761 20.988 66.4671 17.7545L48.9821 7.69459C43.4731 4.46106 36.527 4.46106 31.018 7.69459L13.5329 17.7545C8.02396 20.988 4.5509 26.8563 4.5509 33.3233V52.8443C4.5509 59.6707 8.14372 66.018 14.1317 69.491L30.4192 78.8323C36.4072 82.3054 43.5928 82.3054 49.5809 78.8323L65.8683 69.491C71.8563 66.018 75.4491 59.6707 75.4491 52.8443Z" fill="url(#paint2_radial_160_970)"/>
<path d="M48.7289 8.12581L48.7327 8.12798L66.214 18.1857C66.2146 18.186 66.2152 18.1864 66.2158 18.1868C71.575 21.3332 74.9491 27.0392 74.9491 33.3233V52.8443C74.9491 59.4937 71.4502 65.675 65.6186 69.0578C65.6182 69.058 65.6178 69.0583 65.6174 69.0585L49.3321 78.3986L49.33 78.3998C43.4971 81.7829 36.5029 81.7829 30.67 78.3998L30.6679 78.3986L14.3826 69.0585C14.3823 69.0583 14.3819 69.0581 14.3816 69.0579C8.54995 65.6751 5.0509 59.4938 5.0509 52.8443V33.3233C5.0509 27.0392 8.42503 21.3332 13.7842 18.1868C13.7848 18.1864 13.7854 18.186 13.786 18.1857L31.2673 8.12798L31.2673 8.128L31.2711 8.1258C36.6238 4.98399 43.3762 4.98399 48.7289 8.12581Z" stroke="white" stroke-opacity="0.39"/>
<defs>
<radialGradient id="paint0_radial_160_970" cx="0" cy="0" r="1" gradientUnits="userSpaceOnUse" gradientTransform="translate(10.4681 16.8486) scale(112.877 112.877)">
<stop stop-color="#F6F5F8"/>
<stop offset="0.0239968" stop-color="#E7E2F7"/>
<stop offset="0.0857429" stop-color="#C6B7F5"/>
<stop offset="0.1523" stop-color="#A890F3"/>
<stop offset="0.2229" stop-color="#8F70F2"/>
<stop offset="0.2986" stop-color="#7B56F0"/>
<stop offset="0.3815" stop-color="#6B41EF"/>
<stop offset="0.4752" stop-color="#6033EF"/>
<stop offset="0.5888" stop-color="#5A2BEE"/>
<stop offset="0.7777" stop-color="#5828EE"/>
</radialGradient>
<linearGradient id="paint1_linear_160_970" x1="78.7414" y1="79.9193" x2="-19.4529" y2="-12.8487" gradientUnits="userSpaceOnUse">
<stop stop-color="#FFCEA4"/>
<stop offset="0.0122942" stop-color="#F3C2A9"/>
<stop offset="0.0560476" stop-color="#CF9EB9"/>
<stop offset="0.1053" stop-color="#AF7EC8"/>
<stop offset="0.1597" stop-color="#9363D4"/>
<stop offset="0.2212" stop-color="#7D4DDD"/>
<stop offset="0.2929" stop-color="#6C3CE5"/>
<stop offset="0.3816" stop-color="#6131EA"/>
<stop offset="0.5061" stop-color="#5A2AED"/>
<stop offset="0.8516" stop-color="#5828EE"/>
</linearGradient>
<radialGradient id="paint2_radial_160_970" cx="0" cy="0" r="1" gradientUnits="userSpaceOnUse" gradientTransform="translate(11.9952 65.0031) rotate(180) scale(91.7273 91.7273)">
<stop offset="0.5879" stop-color="#5828EE" stop-opacity="0"/>
<stop offset="0.631" stop-color="#5A2CEE" stop-opacity="0.2026"/>
<stop offset="0.6709" stop-color="#6037EF" stop-opacity="0.3902"/>
<stop offset="0.7095" stop-color="#6B4AEF" stop-opacity="0.5717"/>
<stop offset="0.7473" stop-color="#7A64F0" stop-opacity="0.7497"/>
<stop offset="0.7843" stop-color="#8D86F1" stop-opacity="0.9234"/>
<stop offset="0.8005" stop-color="#9797F2"/>
</radialGradient>
</defs>
</svg>
