<svg width="44" height="44" viewBox="0 0 44 44" fill="none" xmlns="http://www.w3.org/2000/svg">
<path d="M22 0C9.84615 0 0 9.84615 0 22C0 34.1538 9.84615 44 22 44C34.1538 44 44 34.1538 44 22C44 9.84615 34.1538 0 22 0ZM11.5077 24.8923C11.5077 25.8769 10.7077 26.6769 9.72308 26.6769C8.73846 26.6769 7.93846 25.8769 7.93846 24.8923V19.1077C7.93846 18.1231 8.73846 17.3231 9.72308 17.3231C10.7077 17.3231 11.5077 18.1231 11.5077 19.1077V24.8923ZM16.4308 30.2462C16.4308 31.2308 15.6308 32.0308 14.6462 32.0308C13.6615 32.0308 12.8615 31.2308 12.8615 30.2462V13.7538C12.8615 12.7692 13.6615 11.9692 14.6462 11.9692C15.6308 11.9692 16.4308 12.7692 16.4308 13.7538V30.2462ZM21.3231 23.3231C21.3231 24.3077 20.5231 25.1077 19.5385 25.1077C18.5538 25.1077 17.7538 24.3077 17.7538 23.3231V20.6154C17.7538 19.6308 18.5538 18.8308 19.5385 18.8308C20.5231 18.8308 21.3231 19.6308 21.3231 20.6154V23.3231ZM26.2462 33.5692C26.2462 34.5538 25.4462 35.3538 24.4615 35.3538C23.4769 35.3538 22.6769 34.5538 22.6769 33.5692V10.4308C22.6769 9.44615 23.4769 8.64615 24.4615 8.64615C25.4462 8.64615 26.2462 9.44615 26.2462 10.4308V33.5692ZM31.1692 26.8308C31.1692 27.8154 30.3692 28.6154 29.3846 28.6154C28.4 28.6154 27.6 27.8154 27.6 26.8308V17.1692C27.6 16.1846 28.4 15.3846 29.3846 15.3846C30.3692 15.3846 31.1692 16.1846 31.1692 17.1692V26.8308ZM36.0923 23.3846C36.0923 24.3692 35.2923 25.1692 34.3077 25.1692C33.3231 25.1692 32.5231 24.3692 32.5231 23.3846V20.5846C32.5231 19.6 33.3231 18.8 34.3077 18.8C35.2923 18.8 36.0923 19.6 36.0923 20.5846V23.3846ZM39.2308 23.7231C38.2769 23.7231 37.5077 22.9538 37.5077 22C37.5077 13.4769 30.5539 6.52308 22.0308 6.52308C13.5077 6.52308 6.55384 13.4769 6.55384 22C6.55384 22.9538 5.78461 23.7231 4.83077 23.7231C3.87692 23.7231 3.10769 22.9538 3.10769 22C3.10769 11.5385 11.6 3.04615 22.0615 3.04615C32.5231 3.04615 41.0154 11.5385 41.0154 22C40.9538 22.9538 40.1846 23.7231 39.2308 23.7231Z" fill="white"/>
</svg>
