<svg width="28" height="29" viewBox="0 0 28 29" fill="none" xmlns="http://www.w3.org/2000/svg">
<path d="M23.8803 5.65328V6.47657C23.8803 6.69492 23.7935 6.90433 23.6391 7.05873C23.4847 7.21312 23.2752 7.29986 23.0569 7.29986C22.8385 7.29986 22.629 7.21312 22.4746 7.05873C22.3202 6.90433 22.2334 6.69492 22.2334 6.47657V5.65328C22.2334 5.43492 22.3202 5.22552 22.4746 5.07112C22.629 4.91672 22.8385 4.82998 23.0569 4.82998C23.2752 4.82998 23.4847 4.91672 23.6391 5.07112C23.7935 5.22552 23.8803 5.43492 23.8803 5.65328ZM5.76513 19.6493V18.826C5.76513 18.6076 5.67838 18.3982 5.52395 18.2438C5.36953 18.0894 5.1601 18.0027 4.94171 18.0027C4.72333 18.0027 4.51389 18.0894 4.35947 18.2438C4.20505 18.3982 4.1183 18.6076 4.1183 18.826V19.6493C4.1183 19.8676 4.20505 20.077 4.35947 20.2314C4.51389 20.3858 4.72333 20.4726 4.94171 20.4726C5.1601 20.4726 5.36953 20.3858 5.52395 20.2314C5.67838 20.077 5.76513 19.8676 5.76513 19.6493ZM4.94171 7.29986C5.1601 7.29986 5.36953 7.21312 5.52395 7.05873C5.67838 6.90433 5.76513 6.69492 5.76513 6.47657V5.65328C5.76513 5.43492 5.67838 5.22552 5.52395 5.07112C5.36953 4.91672 5.1601 4.82998 4.94171 4.82998C4.72333 4.82998 4.51389 4.91672 4.35947 5.07112C4.20505 5.22552 4.1183 5.43492 4.1183 5.65328V6.47657C4.1183 6.69492 4.20505 6.90433 4.35947 7.05873C4.51389 7.21312 4.72333 7.29986 4.94171 7.29986ZM24.2623 14.5152C25.5208 15.799 26.2617 17.5016 26.3431 19.2974C26.4246 21.0931 25.8408 22.8558 24.7037 24.2482L27.7569 27.2993C27.9115 27.4539 27.9984 27.6636 27.9984 27.8822C27.9984 28.1008 27.9115 28.3105 27.7569 28.4651C27.6023 28.6197 27.3926 28.7065 27.1739 28.7065C26.9553 28.7065 26.7456 28.6197 26.591 28.4651L23.5394 25.4123C22.1468 26.5493 20.3839 27.1329 18.5878 27.0515C16.7918 26.9701 15.0889 26.2294 13.805 24.971C13.2342 25.9736 12.4364 26.8285 11.4756 27.4673C10.5148 28.1061 9.4177 28.5109 8.27223 28.6493C7.12677 28.7877 5.9648 28.6559 4.87947 28.2644C3.79414 27.8729 2.81564 27.2326 2.02241 26.3948C1.22917 25.5571 0.643259 24.5452 0.311642 23.4402C-0.0199758 22.3353 -0.0880769 21.168 0.112798 20.032C0.313673 18.896 0.777936 17.8228 1.46837 16.8985C2.15881 15.9742 3.05621 15.2245 4.08865 14.7095C3.04132 14.1863 2.13335 13.4217 1.43959 12.4788C0.745829 11.5358 0.286147 10.4415 0.098436 9.28604C-0.089275 8.13058 0.000360169 6.94705 0.359954 5.83303C0.719547 4.71901 1.3388 3.70638 2.16667 2.87864C2.99453 2.0509 4.0073 1.43173 5.12149 1.07219C6.23568 0.712654 7.41938 0.623032 8.57502 0.810715C9.73065 0.998398 10.8251 1.45801 11.7682 2.15167C12.7113 2.84533 13.476 3.75316 13.9993 4.80034C14.5139 3.76704 15.2636 2.86872 16.1883 2.17745C17.1129 1.48618 18.1867 1.02121 19.3235 0.819821C20.4603 0.618435 21.6285 0.686248 22.7343 1.01782C23.8402 1.34939 24.853 1.93549 25.6913 2.7291C26.5297 3.52271 27.1704 4.50174 27.562 5.58765C27.9536 6.67356 28.0852 7.83613 27.9463 8.98208C27.8074 10.128 27.4017 11.2255 26.762 12.1864C26.1222 13.1473 25.2661 13.9449 24.2623 14.5152ZM13.9878 11.469C13.2773 12.8578 12.1473 13.9876 10.7583 14.698C11.4116 15.0371 12.0114 15.4704 12.5385 15.984C13.1921 14.8462 14.136 13.9024 15.2739 13.249C14.7597 12.7223 14.3263 12.1225 13.9878 11.469ZM7.41196 13.8862C8.55195 13.8862 9.66635 13.5482 10.6142 12.915C11.5621 12.2817 12.3009 11.3816 12.7371 10.3286C13.1734 9.27552 13.2875 8.11676 13.0651 6.99884C12.8427 5.88092 12.2938 4.85404 11.4877 4.04806C10.6816 3.24208 9.65453 2.6932 8.53644 2.47084C7.41835 2.24847 6.25942 2.36259 5.20621 2.79879C4.15299 3.23498 3.25279 3.97364 2.61944 4.92137C1.9861 5.8691 1.64805 6.98333 1.64805 8.12316C1.64805 9.65161 2.25532 11.1175 3.33626 12.1983C4.4172 13.279 5.88328 13.8862 7.41196 13.8862ZM12.6686 23.5533C12.1133 22.6909 11.751 21.7187 11.6066 20.7032C11.4622 19.6877 11.5391 18.6531 11.8321 17.6701C11.0377 16.6957 9.94597 16.0083 8.72391 15.713C7.50184 15.4177 6.21667 15.5307 5.06491 16.0347C3.91315 16.5388 2.95821 17.4062 2.3461 18.5042C1.73399 19.6022 1.49841 20.8704 1.67539 22.115C1.85236 23.3596 2.43214 24.5119 3.32608 25.3958C4.22002 26.2798 5.37891 26.8466 6.62553 27.0097C7.87216 27.1728 9.13791 26.9232 10.2292 26.299C11.3205 25.6748 12.1774 24.7104 12.6686 23.5533ZM18.9398 13.8862C17.7998 13.8862 16.6854 14.2242 15.7375 14.8575C14.7896 15.4907 14.0509 16.3908 13.6146 17.4438C13.1784 18.4969 13.0642 19.6557 13.2866 20.7736C13.509 21.8915 14.058 22.9184 14.8641 23.7244C15.6702 24.5303 16.6972 25.0792 17.8153 25.3016C18.9334 25.524 20.0923 25.4098 21.1455 24.9736C22.1987 24.5374 23.0989 23.7988 23.7323 22.8511C24.3656 21.9033 24.7037 20.7891 24.7037 19.6493C24.7037 18.1208 24.0964 16.655 23.0155 15.5742C21.9345 14.4934 20.4685 13.8862 18.9398 13.8862ZM26.3505 8.12316C26.3611 7.14707 26.1236 6.18429 25.6601 5.32512C25.1967 4.46596 24.5227 3.73856 23.7011 3.21116C22.8796 2.68375 21.9376 2.37364 20.9634 2.30989C19.9892 2.24614 19.0147 2.43086 18.1315 2.8467C17.2482 3.26255 16.485 3.8959 15.9136 4.68736C15.3421 5.47881 14.9811 6.40242 14.8644 7.37156C14.7477 8.3407 14.879 9.32361 15.2462 10.2281C15.6134 11.1326 16.2043 11.929 16.9636 12.5426C17.9465 12.2482 18.9816 12.1705 19.9975 12.3149C21.0134 12.4593 21.9858 12.8224 22.8477 13.3791C23.8811 12.9407 24.7635 12.2094 25.386 11.2754C26.0085 10.3414 26.3438 9.24553 26.3505 8.12316ZM9.88221 7.29986C10.1006 7.29986 10.31 7.21312 10.4644 7.05873C10.6189 6.90433 10.7056 6.69492 10.7056 6.47657V5.65328C10.7056 5.43492 10.6189 5.22552 10.4644 5.07112C10.31 4.91672 10.1006 4.82998 9.88221 4.82998C9.66382 4.82998 9.45438 4.91672 9.29996 5.07112C9.14554 5.22552 9.05879 5.43492 9.05879 5.65328V6.47657C9.05879 6.69492 9.14554 6.90433 9.29996 7.05873C9.45438 7.21312 9.66382 7.29986 9.88221 7.29986ZM10.5245 9.66601C10.3879 9.49712 10.1901 9.38902 9.97419 9.36528C9.75827 9.34153 9.54171 9.40405 9.37169 9.53922C8.80465 9.95474 8.11992 10.1788 7.4169 10.1788C6.71388 10.1788 6.02915 9.95474 5.46211 9.53922C5.29177 9.40253 5.0741 9.3391 4.85699 9.36288C4.63987 9.38666 4.4411 9.4957 4.30439 9.66601C4.16768 9.83632 4.10424 10.054 4.12802 10.271C4.1518 10.4881 4.26086 10.6869 4.43119 10.8236C5.28829 11.4795 6.33758 11.8349 7.4169 11.8349C8.49622 11.8349 9.54551 11.4795 10.4026 10.8236C10.5722 10.6862 10.6804 10.4871 10.7032 10.27C10.7261 10.0529 10.6618 9.8357 10.5245 9.66601ZM17.6058 9.53922C17.4355 9.67591 17.3265 9.87466 17.3027 10.0917C17.2789 10.3088 17.3423 10.5265 17.479 10.6968C17.6157 10.8671 17.8145 10.9761 18.0316 10.9999C18.2488 11.0237 18.4664 10.9602 18.6368 10.8236C19.2038 10.408 19.8885 10.184 20.5915 10.184C21.2946 10.184 21.9793 10.408 22.5463 10.8236C22.7167 10.9602 22.9343 11.0237 23.1515 10.9999C23.3686 10.9761 23.5674 10.8671 23.7041 10.6968C23.8408 10.5265 23.9042 10.3088 23.8804 10.0917C23.8566 9.87466 23.7476 9.67591 23.5773 9.53922C22.7194 8.88293 21.6693 8.52732 20.5891 8.52732C19.5089 8.52732 18.4588 8.88293 17.6009 9.53922H17.6058ZM9.05879 22.9424H5.76513C5.54674 22.9424 5.33731 23.0292 5.18289 23.1836C5.02846 23.338 4.94171 23.5474 4.94171 23.7657C4.94171 23.9841 5.02846 24.1935 5.18289 24.3479C5.33731 24.5023 5.54674 24.589 5.76513 24.589H9.05879C9.27717 24.589 9.48661 24.5023 9.64103 24.3479C9.79545 24.1935 9.88221 23.9841 9.88221 23.7657C9.88221 23.5474 9.79545 23.338 9.64103 23.1836C9.48661 23.0292 9.27717 22.9424 9.05879 22.9424ZM18.1164 7.29986C18.3347 7.29986 18.5442 7.21312 18.6986 7.05873C18.853 6.90433 18.9398 6.69492 18.9398 6.47657V5.65328C18.9398 5.43492 18.853 5.22552 18.6986 5.07112C18.5442 4.91672 18.3347 4.82998 18.1164 4.82998C17.898 4.82998 17.6885 4.91672 17.5341 5.07112C17.3797 5.22552 17.2929 5.43492 17.2929 5.65328V6.47657C17.2929 6.69492 17.3797 6.90433 17.5341 7.05873C17.6885 7.21312 17.898 7.29986 18.1164 7.29986ZM9.88221 18.0027C9.66382 18.0027 9.45438 18.0894 9.29996 18.2438C9.14554 18.3982 9.05879 18.6076 9.05879 18.826V19.6493C9.05879 19.8676 9.14554 20.077 9.29996 20.2314C9.45438 20.3858 9.66382 20.4726 9.88221 20.4726C10.1006 20.4726 10.31 20.3858 10.4644 20.2314C10.6189 20.077 10.7056 19.8676 10.7056 19.6493V18.826C10.7056 18.6076 10.6189 18.3982 10.4644 18.2438C10.31 18.0894 10.1006 18.0027 9.88221 18.0027ZM18.9398 15.5328C18.7214 15.5328 18.512 15.6195 18.3575 15.7739C18.2031 15.9283 18.1164 16.1377 18.1164 16.3561C18.1164 16.5744 18.2031 16.7839 18.3575 16.9383C18.512 17.0926 18.7214 17.1794 18.9398 17.1794C19.5949 17.1794 20.2232 17.4396 20.6865 17.9028C21.1498 18.366 21.41 18.9942 21.41 19.6493C21.41 19.8676 21.4968 20.077 21.6512 20.2314C21.8056 20.3858 22.0151 20.4726 22.2334 20.4726C22.4518 20.4726 22.6613 20.3858 22.8157 20.2314C22.9701 20.077 23.0569 19.8676 23.0569 19.6493C23.0569 18.5575 22.6231 17.5105 21.851 16.7385C21.0789 15.9665 20.0317 15.5328 18.9398 15.5328Z" fill="white"/>
</svg>
