<svg width="34" height="27" viewBox="0 0 34 27" fill="none" xmlns="http://www.w3.org/2000/svg">
<path d="M16.91 26.7065C16.4931 26.7101 16.0833 26.5987 15.7256 26.3845C15.3679 26.1704 15.0762 25.8617 14.8825 25.4925L12.7468 21.5046C12.6445 21.3132 12.4921 21.1532 12.3059 21.0418C12.1197 20.9303 11.9067 20.8715 11.6897 20.8718H2.29992C1.69019 20.8711 1.10562 20.6286 0.674452 20.1975C0.243283 19.7664 0.000728291 19.1819 0 18.5721V3.00619C0.000728291 2.39646 0.243283 1.81192 0.674452 1.3808C1.10562 0.949683 1.69019 0.707198 2.29992 0.706543H31.5229C32.1326 0.707198 32.7172 0.949683 33.1483 1.3808C33.5795 1.81192 33.8221 2.39646 33.8228 3.00619V18.5716C33.8221 19.1813 33.5795 19.7659 33.1483 20.197C32.7172 20.6281 32.1326 20.8706 31.5229 20.8712H22.1303C21.9133 20.871 21.7003 20.9297 21.5141 21.0412C21.3279 21.1527 21.1755 21.3127 21.0732 21.5041L18.9375 25.492C18.7439 25.8613 18.4523 26.17 18.0946 26.3843C17.7368 26.5986 17.327 26.71 16.91 26.7065ZM2.29992 1.80601C2.14227 1.80598 1.98617 1.83699 1.84051 1.89729C1.69485 1.95758 1.56249 2.04598 1.45099 2.15742C1.3395 2.26887 1.25104 2.40119 1.19068 2.54682C1.13032 2.69245 1.09923 2.84854 1.0992 3.00619V18.5716C1.09956 18.8898 1.22624 19.1948 1.45138 19.4196C1.67653 19.6445 1.98173 19.7707 2.29992 19.7707H11.6897C12.1062 19.7701 12.5149 19.8828 12.8723 20.0967C13.2296 20.3105 13.5221 20.6176 13.7184 20.9849L15.854 24.9728C15.9564 25.1641 16.1089 25.324 16.295 25.4355C16.4812 25.547 16.6941 25.6059 16.9111 25.6059C17.1281 25.6059 17.341 25.547 17.5272 25.4355C17.7134 25.324 17.8658 25.1641 17.9682 24.9728L20.1017 20.9849C20.2979 20.6177 20.5901 20.3108 20.9473 20.0969C21.3044 19.8831 21.7129 19.7703 22.1292 19.7707H31.5204C31.8383 19.7704 32.1432 19.6439 32.368 19.4191C32.5929 19.1943 32.7194 18.8895 32.7197 18.5716V3.00619C32.7194 2.68824 32.5929 2.38342 32.368 2.15862C32.1432 1.93382 31.8383 1.80741 31.5204 1.80711L2.29992 1.80601Z" fill="white"/>
<path d="M17.4966 18.2167C17.3166 18.2167 17.138 18.1866 16.968 18.1275C16.7695 18.0608 16.5866 17.9544 16.4305 17.8147C16.2744 17.675 16.1483 17.505 16.06 17.315C15.9752 17.1338 15.928 16.9372 15.9215 16.7371C15.915 16.5371 15.9492 16.3378 16.0221 16.1514L16.5539 14.7587H14.1585L13.2192 17.2201C13.0639 17.6008 12.7684 17.9073 12.3936 18.0762C12.0189 18.2452 11.5935 18.2638 11.2054 18.1281C11.0082 18.0617 10.8266 17.9561 10.6713 17.8176C10.5161 17.679 10.3905 17.5105 10.3021 17.3222C10.2165 17.1407 10.1686 16.9437 10.1611 16.7432C10.1536 16.5426 10.1868 16.3427 10.2587 16.1553L10.7919 14.7592H9.92133C9.50283 14.7592 9.10147 14.593 8.80555 14.2971C8.50963 14.0011 8.34338 13.5998 8.34338 13.1813C8.34338 12.7628 8.50963 12.3614 8.80555 12.0655C9.10147 11.7696 9.50283 11.6033 9.92133 11.6033H11.9932L12.6989 9.75712H11.7359C11.3174 9.75712 10.916 9.59088 10.6201 9.29495C10.3242 8.99903 10.158 8.59767 10.158 8.17918C10.158 7.76068 10.3242 7.35932 10.6201 7.0634C10.916 6.76748 11.3174 6.60123 11.7359 6.60123H13.9015L14.839 4.14365C14.9939 3.76264 15.2892 3.45567 15.664 3.28609C16.0387 3.11652 16.4642 3.09729 16.8527 3.23238C17.0468 3.29566 17.2261 3.39756 17.3798 3.53194C17.5335 3.66633 17.6584 3.83042 17.747 4.01434C17.8356 4.19826 17.8861 4.39821 17.8954 4.60215C17.9047 4.80609 17.8726 5.0098 17.8011 5.20103L17.2665 6.60123H19.6641L20.6018 4.14365C20.7554 3.76155 21.0506 3.45348 21.4258 3.2837C21.8009 3.11392 22.2272 3.09554 22.6156 3.23238C22.9184 3.33468 23.1818 3.52879 23.3692 3.78772C23.5566 4.04666 23.6586 4.35754 23.6611 4.67716C23.6605 4.85571 23.628 5.03272 23.5654 5.19993L23.0305 6.60013H23.8986C24.3152 6.60013 24.715 6.76445 25.0113 7.05742L25.0193 7.0654C25.2387 7.28676 25.3877 7.5681 25.4476 7.87399C25.5074 8.17988 25.4754 8.49664 25.3556 8.78438C25.2358 9.07211 25.0335 9.31797 24.7742 9.49097C24.5149 9.66397 24.2103 9.75638 23.8986 9.75657H21.8268L21.121 11.6028H22.084C22.2913 11.6021 22.4967 11.6424 22.6883 11.7216C22.8799 11.8007 23.0539 11.9171 23.2003 12.0639C23.4207 12.2848 23.5707 12.5661 23.6314 12.8722C23.6921 13.1783 23.6607 13.4955 23.5413 13.7838C23.4219 14.072 23.2197 14.3185 22.9604 14.492C22.701 14.6655 22.3961 14.7583 22.084 14.7587H19.9156L18.9779 17.2201C18.8605 17.5164 18.6562 17.7702 18.3918 17.948C18.1273 18.1259 17.8152 18.2196 17.4966 18.2167ZM13.3986 13.6581H18.1531L17.05 16.5471C17.0169 16.6558 17.0274 16.7731 17.0794 16.8742C17.1313 16.9753 17.2205 17.0522 17.3282 17.0886C17.3859 17.1124 17.4478 17.1246 17.5103 17.1245C17.5728 17.1244 17.6346 17.112 17.6923 17.088C17.75 17.0639 17.8023 17.0288 17.8464 16.9845C17.8905 16.9403 17.9254 16.8877 17.9492 16.8299L19.1571 13.6589H22.0851C22.2116 13.6588 22.3329 13.6085 22.4223 13.519C22.5118 13.4296 22.5621 13.3083 22.5622 13.1818C22.56 13.0559 22.5091 12.9358 22.4201 12.8467C22.3311 12.7576 22.211 12.7065 22.0851 12.7042H19.5222L21.069 8.65683H23.8986C24.0243 8.65375 24.144 8.60243 24.2328 8.51351C24.3217 8.42458 24.373 8.30487 24.376 8.17918C24.3765 8.11632 24.3645 8.05399 24.3407 7.99581C24.3169 7.93763 24.2817 7.88476 24.2373 7.84029C24.1929 7.79581 24.1401 7.76062 24.0819 7.73675C24.0238 7.71288 23.9615 7.70081 23.8986 7.70125H21.4306C21.4306 7.70125 22.5586 4.72228 22.5586 4.67661C22.5564 4.58606 22.526 4.49847 22.4718 4.42591C22.4176 4.35336 22.3422 4.29944 22.256 4.2716C22.1379 4.22823 22.0078 4.23123 21.8918 4.27998C21.7759 4.32874 21.6827 4.41964 21.6311 4.53436L20.4227 7.70125H15.6669C15.6669 7.70125 16.795 4.71953 16.795 4.6722C16.7924 4.58231 16.7619 4.49546 16.7076 4.42374C16.6534 4.35203 16.5781 4.29903 16.4923 4.27215C16.3735 4.2276 16.2422 4.23034 16.1253 4.27979C16.0085 4.32925 15.9151 4.42165 15.8644 4.53793L14.6574 7.70208H11.7348C11.6082 7.70208 11.4868 7.75237 11.3972 7.8419C11.3077 7.93142 11.2574 8.05284 11.2574 8.17945C11.2574 8.30606 11.3077 8.42748 11.3972 8.51701C11.4868 8.60653 11.6082 8.65683 11.7348 8.65683H14.2978L12.7509 12.7042H9.92133C9.79472 12.7042 9.6733 12.7545 9.58377 12.844C9.49425 12.9335 9.44396 13.0549 9.44396 13.1816C9.44396 13.3082 9.49425 13.4296 9.58377 13.5191C9.6733 13.6086 9.79472 13.6589 9.92133 13.6589H12.3894L11.286 16.5479C11.2537 16.6567 11.2647 16.7737 11.3166 16.8746C11.3684 16.9755 11.4572 17.0524 11.5645 17.0894C11.6228 17.1133 11.6853 17.1255 11.7483 17.1253C11.8114 17.1251 11.8738 17.1124 11.9319 17.0881C11.9901 17.0637 12.0429 17.0282 12.0873 16.9834C12.1317 16.9386 12.1668 16.8856 12.1907 16.8272L13.3986 13.6581ZM18.5138 12.7034H13.7645L15.3053 8.656H20.0603L18.5138 12.7034ZM15.3612 11.6028H17.7549L18.4607 9.75657H16.0642L15.3612 11.6028Z" fill="white"/>
</svg>
