<svg width="87" height="97" viewBox="0 0 87 97" fill="none" xmlns="http://www.w3.org/2000/svg">
<path d="M86.9323 44.1834C86.9323 19.823 66.8999 0.161615 42.4159 0.71807C19.1066 1.27453 0.187137 20.5031 0.00165181 43.8124C-0.183833 65.3287 15.2733 83.1971 35.6766 86.9068L41.9213 95.8719C42.6632 96.9848 44.2707 96.9848 45.0745 95.8719L51.3192 86.9068C71.537 83.2589 86.9323 65.5142 86.9323 44.1834Z" fill="url(#paint0_linear_160_1077)"/>
<path d="M43.4672 76.767C61.4626 76.767 76.0507 62.1788 76.0507 44.1835C76.0507 26.1881 61.4626 11.5999 43.4672 11.5999C25.4718 11.5999 10.8837 26.1881 10.8837 44.1835C10.8837 62.1788 25.4718 76.767 43.4672 76.767Z" fill="white"/>
<path d="M43.5 73.7065C59.7924 73.7065 73 60.4989 73 44.2065C73 27.9141 59.7924 14.7065 43.5 14.7065C27.2076 14.7065 14 27.9141 14 44.2065C14 60.4989 27.2076 73.7065 43.5 73.7065Z" fill="url(#paint1_linear_160_1077)"/>
<defs>
<linearGradient id="paint0_linear_160_1077" x1="43.4661" y1="0.706543" x2="43.4661" y2="96.7065" gradientUnits="userSpaceOnUse">
<stop stop-color="#5F5AFF"/>
<stop offset="1" stop-color="#450CB8"/>
</linearGradient>
<linearGradient id="paint1_linear_160_1077" x1="43.5" y1="14.7065" x2="43.5" y2="73.7065" gradientUnits="userSpaceOnUse">
<stop stop-color="#5F5AFF"/>
<stop offset="1" stop-color="#450CB8"/>
</linearGradient>
</defs>
</svg>
