<svg width="28" height="27" viewBox="0 0 28 27" fill="none" xmlns="http://www.w3.org/2000/svg">
<path d="M16.8405 0.571228C16.5934 0.571228 16.4287 0.735934 16.4287 0.982993V1.8477C16.4287 2.09476 16.5934 2.25946 16.8405 2.25946C17.0875 2.25946 17.2522 2.09476 17.2522 1.8477V0.982993C17.2522 0.77711 17.0875 0.571228 16.8405 0.571228Z" fill="white"/>
<path d="M19.7644 1.02417L19.1468 1.76535C19.0232 1.93005 19.0232 2.21829 19.1879 2.34182C19.3527 2.46535 19.6409 2.46535 19.7644 2.30064L20.3821 1.55947C20.5056 1.39476 20.5056 1.10652 20.3409 0.982995C20.1762 0.818289 19.9291 0.859466 19.7644 1.02417Z" fill="white"/>
<path d="M13.3413 0.982964C13.1766 1.14767 13.1355 1.39473 13.3002 1.55944L13.9178 2.30061C14.0413 2.46532 14.3296 2.50649 14.4943 2.34179C14.659 2.17708 14.7002 1.93002 14.5355 1.76532L13.9178 1.02414C13.7943 0.859435 13.506 0.818259 13.3413 0.982964Z" fill="white"/>
<path d="M0.823242 6.66533V17.33C0.823242 17.5771 0.987948 17.7418 1.23501 17.7418C1.48207 17.7418 1.64677 17.5771 1.64677 17.33V6.66533C1.64677 6.21239 2.01736 5.8418 2.4703 5.8418H7.82324C8.19383 5.8418 8.48207 6.08886 8.6056 6.41827L8.97618 7.53004C9.18207 8.23004 9.84089 8.68298 10.5409 8.68298H13.7938C14.7409 9.17709 15.7703 9.46533 16.8409 9.46533H16.8821C18.6115 9.46533 20.2174 8.76533 21.4115 7.57121L22.5644 6.41827C22.7291 6.25357 22.7291 6.00651 22.5644 5.8418L21.4115 4.68886C18.8997 2.21827 14.8232 2.21827 12.3527 4.73004L11.1997 5.88298C11.035 6.04768 11.035 6.29474 11.1997 6.45945L12.3527 7.61239C12.435 7.69474 12.5585 7.77709 12.6409 7.85945H10.5821C10.2115 7.85945 9.92324 7.61239 9.79971 7.28298L9.42912 6.17121C9.22324 5.47121 8.56442 5.01827 7.86442 5.01827H2.4703C1.56442 5.01827 0.823242 5.75945 0.823242 6.66533ZM12.0232 6.13004L12.8879 5.26533C15.0703 3.08298 18.6115 3.08298 20.7938 5.22415L21.6585 6.08886L20.7938 6.95357C19.7644 8.02415 18.3232 8.60062 16.8409 8.60062C16.8409 8.60062 16.8409 8.60062 16.7997 8.60062C13.8762 8.60062 12.5174 6.50062 12.0232 6.13004Z" fill="white"/>
<path d="M27.1762 12.7183C27.1762 11.7712 26.3938 10.9889 25.4468 10.9889H24.1703C23.9232 10.9889 23.7585 11.1536 23.7585 11.4006C23.7585 11.6477 23.9232 11.8124 24.1703 11.8124H25.4468C25.9409 11.8124 26.3527 12.2242 26.3527 12.7183V25.1124C26.3527 25.6065 25.9409 26.0183 25.4468 26.0183H22.6879V16.8359H24.1703V24.0418C24.1703 24.2889 24.335 24.4536 24.5821 24.4536C24.8291 24.4536 24.9938 24.2889 24.9938 24.0418V16.4242C24.9938 16.1771 24.8291 16.0124 24.5821 16.0124H22.2762C22.0291 16.0124 21.8644 16.1771 21.8644 16.4242V25.9771H20.4232V20.3771C20.4232 20.13 20.2585 19.9653 20.0115 19.9653H17.7056C17.4585 19.9653 17.2938 20.13 17.2938 20.3771V26.0183H13.5056V19.1418H14.9879V24.4536C14.9879 24.7006 15.1527 24.8653 15.3997 24.8653C15.6468 24.8653 15.8115 24.7006 15.8115 24.4536V18.73C15.8115 18.483 15.6468 18.3183 15.3997 18.3183H13.0938C12.8468 18.3183 12.6821 18.483 12.6821 18.73V26.0183H11.2409V22.5594C11.2409 22.3124 11.0762 22.1477 10.8291 22.1477H8.52324C8.27618 22.1477 8.11148 22.3124 8.11148 22.5594V26.0183H5.92912C6.5056 25.483 6.87618 24.7006 6.87618 23.8359V12.7183C6.87618 12.2242 7.28795 11.8124 7.78207 11.8124H20.0115C20.2585 11.8124 20.4232 11.6477 20.4232 11.4006C20.4232 11.1536 20.2585 10.9889 20.0115 10.9889H7.78207C6.83501 10.9889 6.05265 11.7712 6.05265 12.7183V23.8359C6.05265 25.03 5.06442 26.0183 3.8703 26.0183C2.67618 26.0183 1.64677 25.03 1.64677 23.8359V19.6771C1.64677 19.43 1.48207 19.2653 1.23501 19.2653C0.987948 19.2653 0.823242 19.43 0.823242 19.6771V23.8359C0.823242 25.483 2.18207 26.8418 3.82912 26.8418H25.4468C26.3938 26.8418 27.1762 26.0595 27.1762 25.1124V12.7183ZM8.93501 22.9712H10.4174V26.0183H8.93501V22.9712ZM18.1174 20.7889H19.5997V26.0183H18.1174V20.7889Z" fill="white"/>
<path d="M23.9229 10.3712C24.7876 10.3712 25.4876 9.67123 25.4876 8.80653C25.4876 7.94182 24.7876 7.24182 23.9229 7.24182C23.0582 7.24182 22.3582 7.94182 22.3582 8.80653C22.3582 9.21829 22.5229 9.58888 22.77 9.83594L19.9288 14.4065C19.7641 14.3654 19.5994 14.3242 19.3935 14.3242C18.7759 14.3242 18.2818 14.6536 18.0347 15.1889L15.5641 14.4477C15.5229 13.6242 14.8641 12.9654 14.0406 12.9654C13.1759 12.9654 12.4759 13.6654 12.4759 14.5301C12.4759 14.7359 12.5171 14.9006 12.5994 15.0654L10.417 17.8654C10.2112 17.7418 9.96411 17.7006 9.71705 17.7006C8.85234 17.7006 8.15234 18.4006 8.15234 19.2654C8.15234 20.1301 8.85234 20.8301 9.71705 20.8301C10.5818 20.8301 11.2818 20.1301 11.2818 19.2654C11.2818 18.9771 11.1994 18.6889 11.0347 18.4418L13.0935 15.7654C13.3406 15.9712 13.67 16.0948 14.0406 16.0948C14.617 16.0948 15.1523 15.7654 15.3994 15.2712L17.87 16.0124C17.9112 16.8359 18.6112 17.4536 19.3935 17.4536C20.2582 17.4536 20.9582 16.7536 20.9582 15.8889C20.9582 15.5183 20.8347 15.1889 20.5876 14.9006L23.47 10.2889C23.5935 10.3301 23.7582 10.3712 23.9229 10.3712ZM23.9229 8.06535C24.3347 8.06535 24.6641 8.39476 24.6641 8.80653C24.6641 9.21829 24.3347 9.5477 23.9229 9.5477C23.5112 9.5477 23.1818 9.21829 23.1818 8.80653C23.1818 8.39476 23.5112 8.06535 23.9229 8.06535ZM9.67587 19.9654C9.26411 19.9654 8.9347 19.6359 8.9347 19.2242C8.9347 18.8124 9.26411 18.483 9.67587 18.483C10.0876 18.483 10.417 18.8124 10.417 19.2242C10.417 19.6359 10.0876 19.9654 9.67587 19.9654ZM13.9994 15.2301C13.5876 15.2301 13.2582 14.9006 13.2582 14.4889C13.2582 14.0771 13.5876 13.7477 13.9994 13.7477C14.4112 13.7477 14.7406 14.0771 14.7406 14.4889C14.7406 14.9006 14.4112 15.2301 13.9994 15.2301ZM19.3935 16.5889C18.9818 16.5889 18.6523 16.2595 18.6523 15.8477C18.6523 15.4359 18.9818 15.1065 19.3935 15.1065C19.8053 15.1065 20.1347 15.4359 20.1347 15.8477C20.1347 16.2595 19.8053 16.5889 19.3935 16.5889Z" fill="white"/>
<path d="M16.7997 7.85946C17.7468 7.85946 18.5291 7.07711 18.5291 6.13005C18.5291 5.18299 17.7468 4.40063 16.7997 4.40063C16.3468 4.40063 15.8938 4.56534 15.5644 4.89475C15.235 5.22416 15.0703 5.63593 15.0703 6.13005C15.1115 7.07711 15.8527 7.85946 16.7997 7.85946ZM16.1821 5.5124C16.3468 5.34769 16.5938 5.26534 16.7997 5.26534C17.2938 5.26534 17.7056 5.67711 17.7056 6.17122C17.7056 6.66534 17.2938 7.07711 16.7997 7.07711C16.3056 7.07711 15.8938 6.66534 15.8938 6.17122C15.8938 5.88299 16.0174 5.67711 16.1821 5.5124Z" fill="white"/>
</svg>
