<svg width="28" height="29" viewBox="0 0 28 29" fill="none" xmlns="http://www.w3.org/2000/svg">
<path d="M27.7343 26.7848L21.0199 20.0704C22.7889 17.9474 23.7524 15.2983 23.7524 12.5007C23.7524 5.95227 18.453 0.651855 11.9035 0.651855C5.22696 0.651855 -0.128783 6.15521 0.0596329 12.8341C0.233095 19.1638 5.40406 24.3497 11.9035 24.3497C14.6037 24.3497 17.2798 23.4448 19.4731 21.6173L26.1874 28.3314C26.6145 28.7587 27.307 28.7587 27.7343 28.3314C28.1613 27.9044 28.1613 27.2118 27.7343 26.7848ZM11.9035 2.83936C17.2309 2.83936 21.5649 7.17356 21.5649 12.5009C21.5649 15.8434 19.8584 18.7949 17.271 20.5301L16.6447 19.8337V18.0741L18.6295 15.8676C18.9463 15.5155 19.0003 14.9994 18.7634 14.5893L16.9623 11.4697C16.7254 11.0594 16.2512 10.8481 15.7883 10.9466L12.8849 11.5622L11.3611 10.6823L10.4426 7.86035C10.296 7.40982 9.87626 7.10498 9.40244 7.10498H5.80011C5.32651 7.10498 4.90674 7.40982 4.7602 7.86035L3.84162 10.6823L2.31784 11.5622L2.28836 11.556C2.76474 6.67047 6.89493 2.83936 11.9035 2.83936ZM10.657 22.0821C13.4393 19.3637 11.5378 14.5788 7.60138 14.5788C5.7623 14.5788 4.18448 15.7195 3.53849 17.3307C2.91919 16.2602 2.50134 15.0554 2.33023 13.7993C2.57718 13.8386 2.83075 13.792 3.04822 13.6664L5.29874 12.3669C5.53266 12.2319 5.70825 12.0151 5.79199 11.7583L6.59458 9.29248H8.6084L9.41077 11.7583C9.49451 12.0151 9.67011 12.2319 9.90403 12.3669L12.1545 13.6662C12.3885 13.8014 12.664 13.8452 12.9283 13.789L15.4651 13.2511L16.4719 14.9952L14.7377 16.9231C14.5572 17.1239 14.4572 17.3845 14.4572 17.6545V20.2533C14.4572 20.5233 14.5572 20.7839 14.7377 20.9847L15.2568 21.5617C13.8456 22.0857 12.2607 22.2895 10.657 22.0821ZM5.58734 19.8059C4.97446 18.367 6.04087 16.7665 7.60138 16.7665C8.80771 16.7665 9.78888 17.7477 9.78888 18.954C9.78888 20.1601 8.80771 21.1415 7.60138 21.1415C7.59561 21.1415 7.58963 21.1411 7.58387 21.1411C6.86246 20.7788 6.1919 20.3295 5.58734 19.8059Z" fill="white"/>
</svg>
