<svg width="1290" height="816" viewBox="0 0 1290 816" fill="none" xmlns="http://www.w3.org/2000/svg">
<g opacity="0.1">
<mask id="mask0_160_4542" style="mask-type:alpha" maskUnits="userSpaceOnUse" x="0" y="0" width="1290" height="816">
<rect y="816" width="816" height="1289.9" rx="24" transform="rotate(-90 0 816)" fill="#181059"/>
</mask>
<g mask="url(#mask0_160_4542)">
<path d="M-17.0127 552.371C15.4668 481.233 300.049 595.774 300.049 251.079C300.049 69.0479 532.561 108.279 549.058 -1.56746" stroke="white" stroke-width="0.5"/>
<path d="M-92.7988 354.649C-60.3193 283.511 224.263 398.052 224.263 53.3568C224.263 -128.674 456.775 -89.4432 473.272 -199.289" stroke="white" stroke-width="0.5"/>
<path d="M182.094 866.22C161.481 750.761 161.452 514.373 282.988 561.789C484.099 640.251 681.68 455.517 720.736 -37.6569" stroke="white" stroke-width="0.5"/>
<path d="M257.053 1079.63C231.614 936.915 231.578 644.713 381.567 703.324C629.762 800.312 873.599 571.96 921.798 -37.6577" stroke="white" stroke-width="0.5"/>
<path d="M382.465 1227.14C353.658 1065.58 353.616 734.801 523.467 801.15C804.528 910.942 1080.65 652.443 1135.24 -37.658" stroke="white" stroke-width="0.5"/>
</g>
</g>
</svg>
